<?xml version="1.0" encoding="UTF-8"?>
<svg xmlns="http://www.w3.org/2000/svg" xmlns:xlink="http://www.w3.org/1999/xlink" width="40px" height="40px" viewBox="0 0 40 40" version="1.1">
<g id="surface1">
<path style=" stroke:none;fill-rule:nonzero;fill:rgb(0%,0%,0%);fill-opacity:1;" d="M 32.785156 36.527344 L 7.214844 36.527344 C 6.011719 36.527344 5.019531 35.625 4.902344 34.429688 L 3.222656 17.621094 C 3.207031 17.449219 3.261719 17.28125 3.378906 17.152344 C 3.492188 17.027344 3.65625 16.953125 3.828125 16.953125 L 36.175781 16.953125 C 36.347656 16.953125 36.511719 17.027344 36.625 17.152344 C 36.742188 17.28125 36.796875 17.449219 36.78125 17.621094 L 35.101562 34.429688 C 34.980469 35.625 33.988281 36.527344 32.785156 36.527344 Z M 4.496094 18.167969 L 6.105469 34.3125 C 6.164062 34.882812 6.636719 35.3125 7.210938 35.3125 L 32.785156 35.3125 C 33.359375 35.3125 33.835938 34.882812 33.894531 34.3125 L 35.503906 18.167969 Z M 4.496094 18.167969 "/>
<path style=" stroke:none;fill-rule:nonzero;fill:rgb(0%,0%,0%);fill-opacity:1;" d="M 9.21875 11.039062 C 9.042969 11.039062 8.871094 10.964844 8.753906 10.820312 C 8.535156 10.566406 8.570312 10.183594 8.828125 9.96875 L 16.398438 3.617188 C 16.65625 3.402344 17.039062 3.433594 17.25 3.691406 C 17.464844 3.945312 17.433594 4.328125 17.175781 4.542969 L 9.605469 10.894531 C 9.492188 10.992188 9.355469 11.039062 9.21875 11.039062 Z M 9.21875 11.039062 "/>
<path style=" stroke:none;fill-rule:nonzero;fill:rgb(0%,0%,0%);fill-opacity:1;" d="M 30.785156 11.039062 C 30.648438 11.039062 30.507812 10.992188 30.394531 10.894531 L 22.824219 4.542969 C 22.566406 4.328125 22.535156 3.945312 22.746094 3.691406 C 22.964844 3.433594 23.34375 3.398438 23.601562 3.613281 L 31.175781 9.964844 C 31.429688 10.183594 31.464844 10.5625 31.25 10.820312 C 31.128906 10.964844 30.957031 11.039062 30.785156 11.039062 Z M 30.785156 11.039062 "/>
<path style=" stroke:none;fill-rule:nonzero;fill:rgb(0%,0%,0%);fill-opacity:1;" d="M 37.910156 18.167969 L 2.089844 18.167969 C 0.9375 18.167969 0 17.230469 0 16.078125 L 0 12.199219 C 0 11.046875 0.9375 10.109375 2.089844 10.109375 L 37.910156 10.109375 C 39.0625 10.109375 40 11.046875 40 12.199219 L 40 16.078125 C 40 17.230469 39.0625 18.167969 37.910156 18.167969 Z M 2.089844 11.320312 C 1.605469 11.320312 1.210938 11.714844 1.210938 12.199219 L 1.210938 16.074219 C 1.210938 16.558594 1.605469 16.953125 2.089844 16.953125 L 37.910156 16.953125 C 38.394531 16.953125 38.789062 16.558594 38.789062 16.074219 L 38.789062 12.199219 C 38.789062 11.714844 38.394531 11.320312 37.910156 11.320312 Z M 2.089844 11.320312 "/>
<path style=" stroke:none;fill-rule:nonzero;fill:rgb(0%,0%,0%);fill-opacity:1;" d="M 11.21875 31.574219 C 10.882812 31.574219 10.613281 31.300781 10.613281 30.96875 L 10.613281 22.179688 C 10.613281 21.84375 10.882812 21.574219 11.21875 21.574219 C 11.550781 21.574219 11.824219 21.84375 11.824219 22.179688 L 11.824219 30.96875 C 11.824219 31.304688 11.554688 31.574219 11.21875 31.574219 Z M 11.21875 31.574219 "/>
<path style=" stroke:none;fill-rule:nonzero;fill:rgb(0%,0%,0%);fill-opacity:1;" d="M 17.074219 31.574219 C 16.738281 31.574219 16.464844 31.300781 16.464844 30.96875 L 16.464844 22.179688 C 16.464844 21.84375 16.738281 21.574219 17.074219 21.574219 C 17.40625 21.574219 17.679688 21.84375 17.679688 22.179688 L 17.679688 30.96875 C 17.679688 31.304688 17.410156 31.574219 17.074219 31.574219 Z M 17.074219 31.574219 "/>
<path style=" stroke:none;fill-rule:nonzero;fill:rgb(0%,0%,0%);fill-opacity:1;" d="M 22.925781 31.574219 C 22.59375 31.574219 22.320312 31.300781 22.320312 30.96875 L 22.320312 22.179688 C 22.320312 21.84375 22.59375 21.574219 22.925781 21.574219 C 23.261719 21.574219 23.535156 21.84375 23.535156 22.179688 L 23.535156 30.96875 C 23.535156 31.304688 23.261719 31.574219 22.925781 31.574219 Z M 22.925781 31.574219 "/>
<path style=" stroke:none;fill-rule:nonzero;fill:rgb(0%,0%,0%);fill-opacity:1;" d="M 28.78125 31.574219 C 28.449219 31.574219 28.175781 31.300781 28.175781 30.96875 L 28.175781 22.179688 C 28.175781 21.84375 28.449219 21.574219 28.78125 21.574219 C 29.117188 21.574219 29.386719 21.84375 29.386719 22.179688 L 29.386719 30.96875 C 29.386719 31.304688 29.117188 31.574219 28.78125 31.574219 Z M 28.78125 31.574219 "/>
</g>
</svg>
