<?xml version="1.0" encoding="UTF-8"?>
<svg xmlns="http://www.w3.org/2000/svg" xmlns:xlink="http://www.w3.org/1999/xlink" width="40px" height="40px" viewBox="0 0 40 40" version="1.1">
<g id="surface1">
<path style=" stroke:none;fill-rule:nonzero;fill:rgb(0%,0%,0%);fill-opacity:1;" d="M 30 1.179688 C 25.832031 1.179688 22.679688 3.625 20 6.179688 C 17.445312 3.46875 14.167969 1.179688 10 1.179688 C 4.132812 1.179688 0 6.226562 0 11.726562 C 0 14.679688 1.207031 16.804688 2.53125 18.800781 L 18.074219 37.433594 C 19.820312 39.28125 20.148438 39.28125 21.890625 37.433594 L 37.46875 18.800781 C 39.023438 16.804688 40 14.679688 40 11.726562 C 40 6.226562 35.867188 1.179688 30 1.179688 Z M 35 18.285156 L 20 36.179688 L 5 18.210938 C 3.207031 15.714844 2.5 14.035156 2.5 11.726562 C 2.5 7.429688 5.570312 3.5625 10 3.523438 C 13.644531 3.496094 17.777344 7.21875 20 10.023438 C 22.164062 7.316406 26.355469 3.523438 30 3.523438 C 34.3125 3.523438 37.5 7.429688 37.5 11.726562 C 37.5 14.035156 36.941406 15.839844 35 18.285156 Z M 35 18.285156 "/>
</g>
</svg>
