<?xml version="1.0" encoding="UTF-8"?>
<svg xmlns="http://www.w3.org/2000/svg" xmlns:xlink="http://www.w3.org/1999/xlink" width="40px" height="40px" viewBox="0 0 40 40" version="1.1">
<g id="surface1">
<path style=" stroke:none;fill-rule:nonzero;fill:rgb(0%,0%,0%);fill-opacity:1;" d="M 20 21.875 C 14.824219 21.875 10.625 17.675781 10.625 12.5 C 10.625 7.324219 14.824219 3.125 20 3.125 C 25.175781 3.125 29.375 7.324219 29.375 12.5 C 29.375 17.675781 25.175781 21.875 20 21.875 Z M 20 4.375 C 15.511719 4.375 11.875 8.011719 11.875 12.5 C 11.875 16.988281 15.511719 20.625 20 20.625 C 24.488281 20.625 28.125 16.988281 28.125 12.5 C 28.117188 8.015625 24.484375 4.382812 20 4.375 Z M 20 4.375 "/>
<path style=" stroke:none;fill-rule:nonzero;fill:rgb(0%,0%,0%);fill-opacity:1;" d="M 32.5 35.625 L 7.5 35.625 C 7.15625 35.625 6.875 35.34375 6.875 35 L 6.875 27.5 C 7.476562 25.25 9.375 23.8125 11.125 22.550781 C 11.539062 22.238281 11.925781 21.949219 12.289062 21.648438 C 12.546875 21.449219 12.910156 21.476562 13.136719 21.710938 C 14.9375 23.542969 17.4375 24.511719 20 24.375 C 22.546875 24.507812 25.027344 23.535156 26.8125 21.710938 C 27.039062 21.476562 27.40625 21.449219 27.664062 21.648438 C 28.023438 21.949219 28.414062 22.238281 28.824219 22.539062 C 30.539062 23.789062 32.476562 25.25 33.074219 27.324219 L 33.074219 35 C 33.074219 35.328125 32.824219 35.597656 32.5 35.625 Z M 8.125 34.375 L 31.875 34.375 L 31.875 27.585938 C 31.363281 25.960938 29.636719 24.675781 28.125 23.550781 L 27.363281 22.976562 C 25.351562 24.792969 22.707031 25.746094 20 25.625 C 17.292969 25.738281 14.652344 24.785156 12.636719 22.976562 L 11.863281 23.550781 C 10.335938 24.675781 8.613281 25.960938 8.113281 27.585938 Z M 8.125 34.375 "/>
</g>
</svg>
