<?xml version="1.0" encoding="UTF-8"?>
<svg xmlns="http://www.w3.org/2000/svg" xmlns:xlink="http://www.w3.org/1999/xlink" width="30px" height="30px" viewBox="0 0 30 30" version="1.1">
<g id="surface1">
<path style=" stroke:none;fill-rule:nonzero;fill:rgb(0%,0%,0%);fill-opacity:1;" d="M 18.835938 2.5 L 11.164062 2.5 C 4.164062 2.5 2.5 4.164062 2.5 11.164062 L 2.5 18.835938 C 2.5 25.835938 4.164062 27.5 11.164062 27.5 L 18.835938 27.5 C 25.835938 27.5 27.5 25.835938 27.5 18.835938 L 27.5 11.164062 C 27.5 4.164062 25.835938 2.5 18.835938 2.5 M 22.6875 20.335938 L 20.863281 20.335938 C 20.175781 20.335938 19.960938 19.773438 18.75 18.539062 C 17.648438 17.5 17.175781 17.351562 16.914062 17.351562 C 16.550781 17.351562 16.4375 17.449219 16.4375 17.976562 L 16.4375 19.613281 C 16.4375 20.050781 16.300781 20.324219 15.136719 20.324219 C 13.210938 20.324219 11.074219 19.148438 9.574219 16.988281 C 7.3125 13.8125 6.699219 11.414062 6.699219 10.9375 C 6.699219 10.675781 6.789062 10.425781 7.3125 10.425781 L 9.148438 10.425781 C 9.613281 10.425781 9.789062 10.625 9.960938 11.125 C 10.863281 13.75 12.363281 16 12.976562 16 C 13.210938 16 13.3125 15.886719 13.3125 15.3125 L 13.3125 12.625 C 13.25 11.398438 12.585938 11.289062 12.585938 10.851562 C 12.585938 10.625 12.761719 10.425781 13.050781 10.425781 L 15.914062 10.425781 C 16.300781 10.425781 16.4375 10.625 16.4375 11.101562 L 16.4375 14.710938 C 16.4375 15.101562 16.601562 15.238281 16.726562 15.238281 C 16.949219 15.238281 17.148438 15.101562 17.5625 14.675781 C 18.875 13.210938 19.8125 10.949219 19.8125 10.949219 C 19.9375 10.6875 20.136719 10.4375 20.625 10.4375 L 22.414062 10.4375 C 22.960938 10.4375 23.085938 10.726562 22.960938 11.113281 C 22.738281 12.175781 20.511719 15.3125 20.539062 15.3125 C 20.335938 15.625 20.261719 15.761719 20.539062 16.125 C 20.726562 16.386719 21.363281 16.9375 21.789062 17.425781 C 22.5625 18.3125 23.164062 19.050781 23.324219 19.5625 C 23.460938 20.074219 23.210938 20.335938 22.6875 20.335938 Z M 22.6875 20.335938 "/>
</g>
</svg>
